<svg xmlns="http://www.w3.org/2000/svg" viewBox="0 0 512 512"><!--! Font Awesome Pro 6.4.0 by @fontawesome - https://fontawesome.com License - https://fontawesome.com/license (Commercial License) Copyright 2023 Fonticons, Inc. --><path d="M266 9.8c-79.6-7-152.1 48-164.5 126.6-1.5 9.6-2.3 19.4-2.3 29.3v13.6C99.2 268 153 325 210.7 325h20.1c11.7 0 21.6 8.5 23.5 20.1 2.4 14.8-9 28-24 28H217.1c-13.2 0-25.7-6.2-34-16.8-21.7-27.8-54.6-44.1-89.9-44.1-4.7 0-9.2 .3-13.7 .9l-.2 0C34.3 319.4 0 359 0 405.2V448c0 35.3 28.7 64 64 64H272c106 0 192-86 192-192V144c0-43.5-23.7-82.3-61.9-103.1-23.2-12.7-50-24.8-76-29.6zM176 144a64 64 0 1 1 128 0 64 64 0 1 1 -128 0z"/></svg>
